<svg xmlns="http://www.w3.org/2000/svg" xmlns:xlink="http://www.w3.org/1999/xlink" contentStyleType="text/css" height="603px" preserveAspectRatio="none" style="width:410px;height:603px;background:#FFFFFF;" version="1.1" viewBox="0 0 410 603" width="410px" zoomAndPan="magnify"><defs/><g><!--cluster Pi Calculus System--><g id="cluster_Pi Calculus System"><path d="M8.5,6 L157.5,6 A3.75,3.75 0 0 1 160,8.5 L167,28.2969 L399.5,28.2969 A2.5,2.5 0 0 1 402,30.7969 L402,593.98 A2.5,2.5 0 0 1 399.5,596.48 L8.5,596.48 A2.5,2.5 0 0 1 6,593.98 L6,8.5 A2.5,2.5 0 0 1 8.5,6 " fill="none" style="stroke:#000000;stroke-width:1.5;"/><line style="stroke:#000000;stroke-width:1.5;" x1="6" x2="167" y1="28.2969" y2="28.2969"/><text fill="#000000" font-family="sans-serif" font-size="14" font-weight="bold" lengthAdjust="spacing" textLength="148" x="10" y="20.9951">Pi Calculus System</text></g><!--entity PiRuntime--><g id="elem_PiRuntime"><rect fill="#F1F1F1" height="46.2969" rx="2.5" ry="2.5" style="stroke:#181818;stroke-width:0.5;" width="110" x="22" y="164.29"/><rect fill="#F1F1F1" height="10" style="stroke:#181818;stroke-width:0.5;" width="15" x="112" y="169.29"/><rect fill="#F1F1F1" height="2" style="stroke:#181818;stroke-width:0.5;" width="4" x="110" y="171.29"/><rect fill="#F1F1F1" height="2" style="stroke:#181818;stroke-width:0.5;" width="4" x="110" y="175.29"/><text fill="#000000" font-family="sans-serif" font-size="14" lengthAdjust="spacing" textLength="70" x="37" y="197.2851">PiRuntime</text></g><!--entity PiProcess--><g id="elem_PiProcess"><rect fill="#F1F1F1" height="46.2969" rx="2.5" ry="2.5" style="stroke:#181818;stroke-width:0.5;" width="108" x="124" y="287.59"/><rect fill="#F1F1F1" height="10" style="stroke:#181818;stroke-width:0.5;" width="15" x="212" y="292.59"/><rect fill="#F1F1F1" height="2" style="stroke:#181818;stroke-width:0.5;" width="4" x="210" y="294.59"/><rect fill="#F1F1F1" height="2" style="stroke:#181818;stroke-width:0.5;" width="4" x="210" y="298.59"/><text fill="#000000" font-family="sans-serif" font-size="14" lengthAdjust="spacing" textLength="68" x="139" y="320.5851">PiProcess</text></g><!--entity PiChannel<T>--><g id="elem_PiChannel&lt;T&gt;"><rect fill="#F1F1F1" height="46.2969" rx="2.5" ry="2.5" style="stroke:#181818;stroke-width:0.5;" width="142" x="54" y="534.18"/><rect fill="#F1F1F1" height="10" style="stroke:#181818;stroke-width:0.5;" width="15" x="176" y="539.18"/><rect fill="#F1F1F1" height="2" style="stroke:#181818;stroke-width:0.5;" width="4" x="174" y="541.18"/><rect fill="#F1F1F1" height="2" style="stroke:#181818;stroke-width:0.5;" width="4" x="174" y="545.18"/><text fill="#000000" font-family="sans-serif" font-size="14" lengthAdjust="spacing" textLength="102" x="69" y="567.1751">PiChannel&lt;T&gt;</text></g><!--entity GuardedChoice--><g id="elem_GuardedChoice"><rect fill="#F1F1F1" height="46.2969" rx="2.5" ry="2.5" style="stroke:#181818;stroke-width:0.5;" width="148" x="99" y="410.89"/><rect fill="#F1F1F1" height="10" style="stroke:#181818;stroke-width:0.5;" width="15" x="227" y="415.89"/><rect fill="#F1F1F1" height="2" style="stroke:#181818;stroke-width:0.5;" width="4" x="225" y="417.89"/><rect fill="#F1F1F1" height="2" style="stroke:#181818;stroke-width:0.5;" width="4" x="225" y="421.89"/><text fill="#000000" font-family="sans-serif" font-size="14" lengthAdjust="spacing" textLength="108" x="114" y="443.8851">GuardedChoice</text></g><!--entity PiReplicator--><g id="elem_PiReplicator"><rect fill="#F1F1F1" height="46.2969" rx="2.5" ry="2.5" style="stroke:#181818;stroke-width:0.5;" width="121" x="81.5" y="41"/><rect fill="#F1F1F1" height="10" style="stroke:#181818;stroke-width:0.5;" width="15" x="182.5" y="46"/><rect fill="#F1F1F1" height="2" style="stroke:#181818;stroke-width:0.5;" width="4" x="180.5" y="48"/><rect fill="#F1F1F1" height="2" style="stroke:#181818;stroke-width:0.5;" width="4" x="180.5" y="52"/><text fill="#000000" font-family="sans-serif" font-size="14" lengthAdjust="spacing" textLength="81" x="96.5" y="73.9951">PiReplicator</text></g><!--link PiRuntime to PiProcess--><g id="link_PiRuntime_PiProcess"><path d="M95.76,210.97 C113.9,232.76 137.3908,260.9691 155.5008,282.7191 " fill="none" id="PiRuntime-to-PiProcess" style="stroke:#181818;stroke-width:1.0;"/><polygon fill="#181818" points="159.34,287.33,156.6551,277.8542,156.1406,283.4876,150.5072,282.9731,159.34,287.33" style="stroke:#181818;stroke-width:1.0;"/><text fill="#000000" font-family="sans-serif" font-size="13" lengthAdjust="spacing" textLength="49" x="134.55" y="253.6569">Spawns</text></g><!--link PiRuntime to PiChannel<T>--><g id="link_PiRuntime_PiChannel&lt;T&gt;"><path d="M74.32,211.09 C69.46,257.78 61.37,367.86 81,457.18 C87.1,484.96 98.4395,509.1912 109.0795,528.7212 " fill="none" id="PiRuntime-to-PiChannel&lt;T&gt;" style="stroke:#181818;stroke-width:1.0;"/><polygon fill="#181818" points="111.95,533.99,111.1568,524.1731,109.5579,529.5993,104.1318,528.0004,111.95,533.99" style="stroke:#181818;stroke-width:1.0;"/><text fill="#000000" font-family="sans-serif" font-size="13" lengthAdjust="spacing" textLength="50" x="71.33" y="376.9569">Creates</text></g><!--link PiProcess to PiChannel<T>--><g id="link_PiProcess_PiChannel&lt;T&gt;"><path d="M208.54,334.21 C218.96,342.77 230.19,353.09 239,363.89 C279.14,413.09 302.29,452.07 266,504.18 C250.04,527.1 228.5761,538.3822 202.2661,545.6022 " fill="none" id="PiProcess-to-PiChannel&lt;T&gt;" style="stroke:#181818;stroke-width:1.0;"/><polygon fill="#181818" points="196.48,547.19,206.2177,548.6657,201.3017,545.8668,204.1006,540.9509,196.48,547.19" style="stroke:#181818;stroke-width:1.0;"/><text fill="#000000" font-family="sans-serif" font-size="13" lengthAdjust="spacing" textLength="32" x="285.08" y="438.5969">Uses</text></g><!--link PiProcess to GuardedChoice--><g id="link_PiProcess_GuardedChoice"><path d="M177.07,334.27 C176.17,356.06 175.0682,382.8851 174.1682,404.6251 " fill="none" id="PiProcess-to-GuardedChoice" style="stroke:#181818;stroke-width:1.0;"/><polygon fill="#181818" points="173.92,410.62,178.2888,401.7932,174.1268,405.6243,170.2957,401.4623,173.92,410.62" style="stroke:#181818;stroke-width:1.0;"/><text fill="#000000" font-family="sans-serif" font-size="13" lengthAdjust="spacing" textLength="53" x="176.8" y="376.9569">May use</text></g><!--link PiProcess to PiProcess--><g id="link_PiProcess_PiProcess"><path d="M232.32,299.19 C251.46,299 267,302.85 267,310.74 C267,318.62 257.4597,322.5396 238.3197,322.3496 " fill="none" id="PiProcess-to-PiProcess" style="stroke:#181818;stroke-width:1.0;"/><polygon fill="#181818" points="232.32,322.29,241.2799,326.3791,237.3198,322.3396,241.3593,318.3795,232.32,322.29" style="stroke:#181818;stroke-width:1.0;"/><text fill="#000000" font-family="sans-serif" font-size="13" lengthAdjust="spacing" textLength="122" x="273" y="307.8069">Recursively spawns</text><text fill="#000000" font-family="sans-serif" font-size="13" lengthAdjust="spacing" textLength="82" x="293" y="322.9397">(self or child)</text></g><!--link GuardedChoice to PiChannel<T>--><g id="link_GuardedChoice_PiChannel&lt;T&gt;"><path d="M164.08,457.57 C155.46,479.35 144.6771,506.6007 136.0771,528.3407 " fill="none" id="GuardedChoice-to-PiChannel&lt;T&gt;" style="stroke:#181818;stroke-width:1.0;"/><polygon fill="#181818" points="133.87,533.92,140.9002,527.0224,135.7092,529.2706,133.4611,524.0796,133.87,533.92" style="stroke:#181818;stroke-width:1.0;"/><text fill="#000000" font-family="sans-serif" font-size="13" lengthAdjust="spacing" textLength="104" x="152.87" y="500.2469">Awaits message</text></g><!--link PiReplicator to PiProcess--><g id="link_PiReplicator_PiProcess"><path d="M174.33,87.71 C183.4,95.88 192.12,105.93 197,117.29 C221.66,174.66 202.5061,244.6196 189.0661,281.6696 " fill="none" id="PiReplicator-to-PiProcess" style="stroke:#181818;stroke-width:1.0;"/><polygon fill="#181818" points="187.02,287.31,193.8493,280.2135,188.725,282.6097,186.3288,277.4854,187.02,287.31" style="stroke:#181818;stroke-width:1.0;"/><text fill="#000000" font-family="sans-serif" font-size="13" lengthAdjust="spacing" textLength="182" x="209.36" y="192.0069">Creates replicated instances</text></g><!--link PiReplicator to PiRuntime--><g id="link_PiReplicator_PiRuntime"><path d="M119.43,87.79 C111.77,96.45 103.71,106.78 98,117.29 C90.03,131.95 86.0456,144.1998 82.7456,158.2098 " fill="none" id="PiReplicator-to-PiRuntime" style="stroke:#181818;stroke-width:1.0;"/><polygon fill="#181818" points="81.37,164.05,87.3269,156.2068,82.5164,159.1832,79.54,154.3727,81.37,164.05" style="stroke:#181818;stroke-width:1.0;"/><text fill="#000000" font-family="sans-serif" font-size="13" lengthAdjust="spacing" textLength="93" x="99" y="130.3569">Uses to spawn</text></g><!--link PiChannel<T> to PiChannel<T>--><g id="link_PiChannel&lt;T&gt;_PiChannel&lt;T&gt;"><path d="M196.34,545.84 C215.99,546.4 231,550.23 231,557.33 C231,564.44 221.9877,568.1021 202.3377,568.6521 " fill="none" id="PiChannel&lt;T&gt;-to-PiChannel&lt;T&gt;" style="stroke:#181818;stroke-width:1.0;"/><polygon fill="#181818" points="196.34,568.82,205.4484,572.5666,201.338,568.6801,205.2246,564.5698,196.34,568.82" style="stroke:#181818;stroke-width:1.0;"/><text fill="#000000" font-family="sans-serif" font-size="13" lengthAdjust="spacing" textLength="160" x="237" y="561.8969">Can carry other channels</text></g><!--SRC=[RP71QiCm44Jl_eeXf_IG7oWbK7pegM2IvfJaiAotjQWi6QsKO4B_lR6ZXb1qNFPfTcOq47_Jbs3H6DHaETcas8uQfL_WKbN0lZ6RvABfvOZLQZtDJV0igaSyOplGsMaPgpjoJkpBnteYwo0K9QDtXIAwqpBtbYYqqjQTDomJ-4uZaafPyy7bHZW5DIUn8tHsV71B5Vi97y2TiUtJ7FNVWQAvrpEPgEYlqjVYSd8Ph66AFfIkv-G8cP8Mncaantyn2-_lPTxgGFGtv_bB7ZsLwoO7fX16-DZ9b7BUQlNp2m00]--></g></svg>